<svg id="facebook" xmlns="http://www.w3.org/2000/svg" width="50" height="50" viewBox="0 0 50 50">
  <path id="Path_14" data-name="Path 14" d="M292.524,508.668q-.831.135-1.668.25Q291.693,508.8,292.524,508.668Zm0,0" transform="translate(-263.051 -459.534)" fill="#f2d4ae"/>
  <path id="Path_15" data-name="Path 15" d="M300.134,507.793c-.265.049-.53.093-.794.139C299.6,507.886,299.87,507.842,300.134,507.793Zm0,0" transform="translate(-270.399 -458.886)" fill="#f2d4ae"/>
  <path id="Path_16" data-name="Path 16" d="M279.565,510.34q-.973.11-1.955.193Q278.591,510.45,279.565,510.34Zm0,0" transform="translate(-251.171 -460.771)" fill="#f2d4ae"/>
  <path id="Path_17" data-name="Path 17" d="M287.383,509.738c-.312.042-.625.08-.938.117C286.758,509.818,287.071,509.78,287.383,509.738Zm0,0" transform="translate(-258.802 -460.326)" fill="#f2d4ae"/>
  <path id="Path_18" data-name="Path 18" d="M307.366,506.41c-.233.05-.468.1-.7.147C306.9,506.51,307.133,506.46,307.366,506.41Zm0,0" transform="translate(-276.98 -457.862)" fill="#f2d4ae"/>
  <path id="Path_19" data-name="Path 19" d="M325.051,502.113c-.189.054-.378.1-.566.157C324.673,502.218,324.862,502.167,325.051,502.113Zm0,0" transform="translate(-293.021 -454.682)" fill="#f2d4ae"/>
  <path id="Path_20" data-name="Path 20" d="M319.676,503.543c-.2.054-.411.109-.617.16Q319.368,503.626,319.676,503.543Zm0,0" transform="translate(-288.142 -455.74)" fill="#f2d4ae"/>
  <path id="Path_21" data-name="Path 21" d="M312.722,505.254c-.217.051-.436.1-.656.147C312.286,505.352,312.5,505.3,312.722,505.254Zm0,0" transform="translate(-281.842 -457.006)" fill="#f2d4ae"/>
  <path id="Path_22" data-name="Path 22" d="M274.532,511.09q-.525.044-1.051.079Q274.007,511.134,274.532,511.09Zm0,0" transform="translate(-247.127 -461.326)" fill="#f2d4ae"/>
  <path id="Path_23" data-name="Path 23" d="M50,25A25,25,0,1,0,25,50c.147,0,.293,0,.439-.006V30.533H20.068v-6.26h5.371V19.667c0-5.342,3.261-8.25,8.027-8.25a44.214,44.214,0,0,1,4.815.246v5.583H35c-2.592,0-3.094,1.232-3.094,3.04v3.987h6.2l-.808,6.26H31.9v18.5A25.013,25.013,0,0,0,50,25Zm0,0" fill="#f2d4ae"/>
  <path id="Path_24" data-name="Path 24" d="M266.975,511.43q-1.038.067-2.084.1Q265.936,511.5,266.975,511.43Zm0,0" transform="translate(-239.706 -461.578)" fill="#f2d4ae"/>
  <path id="Path_25" data-name="Path 25" d="M261.608,511.836q-.551.018-1.1.027Q261.056,511.854,261.608,511.836Zm0,0" transform="translate(-235.418 -461.879)" fill="#f2d4ae"/>
</svg>
