<svg xmlns="http://www.w3.org/2000/svg" width="254.88" height="150.279" viewBox="0 0 254.88 150.279">
  <g id="Logo_orange_PATH" data-name="Logo orange PATH" transform="translate(84 23243.359)">
    <path id="Path_32" data-name="Path 32" d="M66.5,0A66.5,66.5,0,1,1,0,66.5,66.5,66.5,0,0,1,66.5,0Z" transform="translate(-84 -23243)" fill="#bf6c3b"/>
    <path id="Path_35" data-name="Path 35" d="M-.195-20.54q5.98,4.55,17.68,4.55h.52q7.28-13.52,13.91-24.96Q12.025-29.25-.195-20.54ZM76.5-82.03q0-4.42-5.98-5.2Q59.215-74.1,45.565-52.65q15.21-9.1,23.075-15.99T76.5-82.03Zm-62.27,15.6A76.051,76.051,0,0,0-.26-49.205q-5.525,9.165-5.525,15.8t2.99,10.4q12.22-8.58,37.83-23.4,15.6-26.78,28.21-40.82a78.176,78.176,0,0,0-26.78,6.76A84.06,84.06,0,0,0,14.235-66.43Zm2.34,53.04h-2.73q-11.44,0-18.46-4.03-33.28,24.57-33.28,48.23,0,14.56,10.14,14.56,4.81,0,9.75-4.94,2.86-2.73,5.135-5.2a60.587,60.587,0,0,0,5.59-7.54q3.315-5.07,5.46-8.515T4.225,8.9Q8.125,2.08,10.14-1.69T16.575-13.39Zm63.05-68.9Q79.5-74.62,70-66.43T42.055-47.06q-10.14,16.38-18.33,30.68a42.665,42.665,0,0,0,21.32-9.23,1.9,1.9,0,0,1,1.17-.39q.65,0,.65.715T44-22.425a45.539,45.539,0,0,1-8.9,4.745,52.56,52.56,0,0,1-12.675,3.64Q1.755,21.06-6.045,30.94q-10.53,13.39-16.9,16.9a16,16,0,0,1-7.54,2.08,9.928,9.928,0,0,1-8.775-4.94A20.183,20.183,0,0,1-42.445,33.8q0-27.3,34.97-53.43-5.07-4.55-5.07-12.415T-6.5-49.6A79.429,79.429,0,0,1,9.62-67.86,92.149,92.149,0,0,1,34.58-82.55a94.722,94.722,0,0,1,30.745-7.02,89.525,89.525,0,0,1,10.66-9.75,7.007,7.007,0,0,1,3.965-1.04q2.405,0,2.405,1.3,0,.65-1.82,1.95t-2.73,2.08l-5.33,5.59a10.017,10.017,0,0,1,5.07,2.73A6.212,6.212,0,0,1,79.625-82.29Z" transform="translate(-37 -23143)" fill="#f2d4ae"/>
    <path id="Path_36" data-name="Path 36" d="M7.36-28q0,.04.04.6l-1.56.2V0Q5.96,4.8.08,9.92L-.4,9.56A15.9,15.9,0,0,0,3.12,0V-26.72a.554.554,0,0,0-.48-.44l-2.48-.2-.04-.6ZM18.92.16a9.5,9.5,0,0,1-6.74-2.4Q9.6-4.64,9.6-9.58a10.664,10.664,0,0,1,2.74-7.76,9.217,9.217,0,0,1,6.9-2.82A9.572,9.572,0,0,1,26-17.76q2.6,2.4,2.6,7.34a10.664,10.664,0,0,1-2.74,7.76A9.265,9.265,0,0,1,18.92.16Zm.28-19.6a6.079,6.079,0,0,0-5,2.6,11.3,11.3,0,0,0-2,7.06q0,4.46,1.9,6.84A5.988,5.988,0,0,0,19-.56a6.079,6.079,0,0,0,5-2.6,11.266,11.266,0,0,0,2-7.04q0-4.44-1.9-6.84A5.97,5.97,0,0,0,19.2-19.44ZM35.44,10l-.08-.56,3.72-.48q.28-.04.36-.56L40.76,0H39.44L32.76-18.6l-.04-.04a.843.843,0,0,0-.64-.56l-1.8-.16a3.745,3.745,0,0,1-.04-.6l8.4-.04q0,.04.04.6l-3.12.24L41.48-1.04l7.44-17.6a.281.281,0,0,0-.14-.4,1.4,1.4,0,0,0-.54-.2l-1.76-.12a3.745,3.745,0,0,1-.04-.6L53.76-20q0,.04.04.6l-3.56.36L41.84,0,40.32,9.16l3.48.2q.08.56.08.6ZM67.88-1.52h-.12a16.5,16.5,0,0,1-7,1.68q-5.32,0-5.64-4.2a3.692,3.692,0,0,1-.04-.52q0-3.08,4.04-4.12,2.4-.52,8.64-1.24v-3.52a9.156,9.156,0,0,0-.4-2.88,5.637,5.637,0,0,0-.88-1.78,3.176,3.176,0,0,0-1.24-.9,5.514,5.514,0,0,0-2.14-.4,7.484,7.484,0,0,0-2.7.6,15.854,15.854,0,0,0-3.92,2.32l-.16,3.12-.76.2V-18l.4-.16a22.874,22.874,0,0,1,4.76-1.64,18.984,18.984,0,0,1,2.4-.3q.76-.02,1.46.02a8.793,8.793,0,0,1,1.82.36,6.351,6.351,0,0,1,1.94.9,4.74,4.74,0,0,1,1.42,1.74,5.936,5.936,0,0,1,.6,2.76V-2.08q0,1.24.64,1.24l2.44.12-.04.6a28.6,28.6,0,0,1-4,.32,1.775,1.775,0,0,1-1-.5A1.549,1.549,0,0,1,67.88-1.52ZM61.48-.48a11.925,11.925,0,0,0,6.28-2.08v-6.6a37.006,37.006,0,0,0-7.54.7A3.5,3.5,0,0,0,58.1-6.9a4.348,4.348,0,0,0-.58,2.1v.4a3.985,3.985,0,0,0,1.24,3A4.146,4.146,0,0,0,61.48-.48Zm13.6-18.88-.04-.6,5.4-.04V-6.08a7.49,7.49,0,0,0,.44,2.7,4.609,4.609,0,0,0,.98,1.66,3.761,3.761,0,0,0,1.26.8A4.4,4.4,0,0,0,85-.6q2.44-.04,5.56-2.52V-18.6a.789.789,0,0,0-.68-.56l-2.08-.2a3.746,3.746,0,0,1-.04-.6l5.4-.04V-1.84q.08,1,.64,1l2.4.12-.04.6a24.3,24.3,0,0,1-4,.32,1.87,1.87,0,0,1-1.04-.54,1.617,1.617,0,0,1-.56-1.26v-.72A12.493,12.493,0,0,1,83.68.12a9.454,9.454,0,0,1-3.2-.68,3.673,3.673,0,0,1-1.92-1.66,5.94,5.94,0,0,1-.72-3.06V-18.56a.5.5,0,0,0-.22-.38.979.979,0,0,0-.46-.22ZM118.12-20q0,.04.04.6l-1.76.2L110.36-10l6.36,9.28,2.16.12q0,.04-.04.6l-8.6.04a3.019,3.019,0,0,1,.04-.56l2.52-.32a.447.447,0,0,0,.34-.22.29.29,0,0,0-.02-.34l-4.8-7.44L102.68,0,98.84.04l-.04-.6,3.04-.28,5.84-8.92-.48-.8L101-19.8h3.2l.4.64-2.76.6q-.44-.56-.68-.6l-1.56-.2a3.746,3.746,0,0,1-.04-.6l8.4-.04q0,.04.04.6l-3.4.24,5.12,8.2,5.72-9Z" transform="translate(52 -23148)" fill="#f3d4ac"/>
  </g>
</svg>
