<svg id="Tiktok" xmlns="http://www.w3.org/2000/svg" width="50" height="50" viewBox="0 0 50 50">
  <path id="Path_13" data-name="Path 13" d="M25,0A25,25,0,1,0,50,25,25,25,0,0,0,25,0ZM36.011,22.371a7.52,7.52,0,0,1-5.43-2.567c-.154-.177-.3-.357-.6-.7v5.584c-.017,2.247.1,4.517-.121,6.742a8.27,8.27,0,0,1-8.031,7.4,8.431,8.431,0,0,1-2.171-16.643,8.357,8.357,0,0,1,1.539-.213c.683-.034.935.138.893.843-.062,1.07-.017,2.146-.017,3.225a15.992,15.992,0,0,0-1.607.216,4.278,4.278,0,0,0-3.191,4.73,4.4,4.4,0,0,0,8.73-.365c.048-6.18.045-12.36.062-18.539v-.955h3.933c.048.166.115.343.149.522a7.337,7.337,0,0,0,6.18,5.972c.427.065.562.205.562.626-.022,1.1-.059,2.208,0,3.306.02.722-.281.843-.9.812Z" fill="#f2d4ae"/>
</svg>
