<svg xmlns="http://www.w3.org/2000/svg" width="14.616" height="18" viewBox="0 0 14.616 18">
  <g id="trash-can-icon" transform="translate(0.032 -0.048)">
    <path id="Path_37" data-name="Path 37" d="M137.589,202.568c-.117-.032-.235-.06-.351-.1a2.2,2.2,0,0,1-1.508-2.021c0-.1,0-.2,0-.3q0-5.008,0-10.015a.253.253,0,0,0-.2-.284,1.6,1.6,0,0,1-.991-1.67,1.573,1.573,0,0,1,1.426-1.394c.718-.034,1.44-.02,2.16-.027h.156c.011-.233.016-.458.033-.683a1.638,1.638,0,0,1,1.635-1.5c1.259-.009,2.518-.017,3.778,0a1.649,1.649,0,0,1,1.652,1.731c0,.14,0,.28,0,.443.069,0,.131.008.192.009.627,0,1.253-.006,1.88,0a1.607,1.607,0,0,1,.7,3.086.267.267,0,0,0-.206.3q.009,5.025.005,10.05a2.361,2.361,0,0,1-.713,1.807,2.034,2.034,0,0,1-1.049.528.6.6,0,0,0-.094.034Zm9.519-12.588H136.57v10.257a2.31,2.31,0,0,0,.027.35,1.292,1.292,0,0,0,1.29,1.136q3.954.005,7.908,0a1.215,1.215,0,0,0,.861-.338,1.542,1.542,0,0,0,.451-1.194V189.98Zm-5.275-.856h5.516a2.706,2.706,0,0,0,.28-.013.752.752,0,0,0,.114-1.47,1.434,1.434,0,0,0-.348-.035q-5.56,0-11.119,0a1.706,1.706,0,0,0-.262.019.752.752,0,0,0-.062,1.471,1.573,1.573,0,0,0,.349.027Zm-2.689-2.378h5.395v-.223c0-.122,0-.246-.013-.368a.789.789,0,0,0-.8-.736q-1.889-.009-3.778,0a.79.79,0,0,0-.8.752C139.131,186.356,139.144,186.544,139.144,186.745Z" transform="translate(-134.56 -184.52)" fill="#8c4227"/>
    <path id="Path_38" data-name="Path 38" d="M239.564,343.591q0,1.941,0,3.881a.777.777,0,0,1-.082.35.356.356,0,0,1-.391.174.392.392,0,0,1-.338-.291.8.8,0,0,1-.029-.207v-7.78c0-.278.117-.454.323-.5a.41.41,0,0,1,.513.369,2.6,2.6,0,0,1,.006.3Q239.564,341.738,239.564,343.591Z" transform="translate(-234.352 -332.627)" fill="#8c4227"/>
    <path id="Path_39" data-name="Path 39" d="M297.694,343.625v-3.9a.463.463,0,0,1,.227-.46.411.411,0,0,1,.584.234,1.011,1.011,0,0,1,.032.277q0,3.837,0,7.674a1.086,1.086,0,0,1-.024.243.409.409,0,0,1-.8,0,1.115,1.115,0,0,1-.02-.244Q297.693,345.539,297.694,343.625Z" transform="translate(-290.835 -332.64)" fill="#8c4227"/>
    <path id="Path_40" data-name="Path 40" d="M356.6,343.627V339.8c0-.372.149-.566.427-.561s.417.2.417.558v7.674c0,.366-.157.57-.432.564s-.412-.2-.412-.561Z" transform="translate(-347.254 -332.658)" fill="#8c4227"/>
  </g>
</svg>
