<svg xmlns="http://www.w3.org/2000/svg" width="50" height="50" viewBox="0 0 50 50">
  <g id="twitter" transform="translate(-1.475 0.676)">
    <path id="Path_26" data-name="Path 26" d="M24.8-.61c18.005-1.335,31.971,17.9,24.714,34.436A25.192,25.192,0,0,1,24.9,49.3C-6.279,46.371-6.357,2.422,24.8-.61ZM38.544,18.28a8.347,8.347,0,0,0,2.269-3.148c-1.369.322-3.227,1.823-4.323.741-4.157-3.48-10.416.195-9.673,5.458,0,.341-.1.487-.43.468a17.381,17.381,0,0,1-11.873-6.141c-1.428,3.1-.763,5.643,1.672,7.827-.029.049-.068.088-.1.136-.753-.195-1.506-.4-2.377-.624a6.061,6.061,0,0,0,4.558,5.751.729.729,0,0,0-.049.156H15.961a1.144,1.144,0,0,1-.068.195,6.226,6.226,0,0,0,5.281,3.987,12.234,12.234,0,0,1-8.235,2.524c10.631,7.223,25.693-1.647,25.712-13.392-.02-2.544,1.6-2.758,2.9-4.61l-.088-.088C40.519,17.763,39.581,18.007,38.544,18.28Z" transform="translate(0 0)" fill="#f2d4ae"/>
  </g>
</svg>
